<svg xmlns="http://www.w3.org/2000/svg" viewBox="0 0 320 180" width="320" height="180">
  <defs>
    <linearGradient id="bg" x1="0" y1="0" x2="1" y2="1">
      <stop offset="0%" stop-color="#151a24"/>
      <stop offset="100%" stop-color="#0c0e14"/>
    </linearGradient>
    <linearGradient id="snake" x1="0" y1="0" x2="1" y2="1">
      <stop offset="0%" stop-color="#4dd0a4"/>
      <stop offset="100%" stop-color="#35a884"/>
    </linearGradient>
    <radialGradient id="apple-glow" cx="50%" cy="50%" r="50%">
      <stop offset="0%" stop-color="#ff8a65" stop-opacity="0.55"/>
      <stop offset="100%" stop-color="#ff8a65" stop-opacity="0"/>
    </radialGradient>
  </defs>
  <rect width="320" height="180" fill="url(#bg)"/>
  <circle cx="160" cy="70" r="140" fill="#4dd0a4" opacity="0.06"/>
  <g fill="none" stroke="#ffffff" stroke-opacity="0.04" stroke-width="1">
    <path d="M0 30H320M0 60H320M0 90H320M0 120H320M0 150H320"/>
    <path d="M40 0V180M80 0V180M120 0V180M160 0V180M200 0V180M240 0V180M280 0V180"/>
  </g>
  <g fill="url(#snake)">
    <rect x="40" y="80" width="20" height="20" rx="5"/>
    <rect x="60" y="80" width="20" height="20" rx="5"/>
    <rect x="80" y="80" width="20" height="20" rx="5"/>
    <rect x="80" y="60" width="20" height="20" rx="5"/>
    <rect x="80" y="40" width="20" height="20" rx="5"/>
  </g>
  <circle cx="230" cy="50" r="26" fill="url(#apple-glow)"/>
  <rect x="220" y="40" width="20" height="20" rx="6" fill="#ff6b6b"/>
  <text x="160" y="152" font-family="Segoe UI, sans-serif" font-size="22" font-weight="700" fill="#eef0f5" text-anchor="middle">Snake</text>
</svg>
